<?xml version="1.0" encoding="utf-8"?>
<!-- Generator: Adobe Illustrator 17.0.0, SVG Export Plug-In . SVG Version: 6.00 Build 0)  -->
<!DOCTYPE svg PUBLIC "-//W3C//DTD SVG 1.1//EN" "http://www.w3.org/Graphics/SVG/1.1/DTD/svg11.dtd">
<svg version="1.1"
	 id="Syria_1_" xmlns:sodipodi="http://sodipodi.sourceforge.net/DTD/sodipodi-0.dtd" xmlns:dc="http://purl.org/dc/elements/1.1/" xmlns:inkscape="http://www.inkscape.org/namespaces/inkscape" xmlns:cc="http://creativecommons.org/ns#" xmlns:svg="http://www.w3.org/2000/svg" xmlns:rdf="http://www.w3.org/1999/02/22-rdf-syntax-ns#" sodipodi:docname="Syria_location_map3.svg" inkscape:version="0.48.4 r9939"
	 xmlns="http://www.w3.org/2000/svg" xmlns:xlink="http://www.w3.org/1999/xlink" x="0px" y="0px" width="921.834px"
	 height="761.916px" viewBox="0 0 921.834 761.916" enable-background="new 0 0 921.834 761.916" xml:space="preserve">
<path id="Syria" fill="none" d="M880.583,69.983c-0.234-0.328-0.382-0.722-0.426-1.118c-0.014-0.122-0.093-0.867-0.045-0.941
	c0.19-0.297,1.49-2.425,1.604-2.528c0.17-2.252-1.16-2.818-1.889-4.623c-0.867-2.148-2.042-4.041-0.83-6.312
	c1.451-0.882,2.989-2.519,1.737-4.204l-0.602-0.81c-1.699-0.283-2.927-1.016-3.383-2.759c-3.892-1.465-1.114-1.412-3.094-3.278
	l-2.283,1.328l-1.014-0.094c-1.086-1.075-2.312-1.291-3.783-1.182l-0.932,0.532l-0.742-0.117c0,0-0.257-0.853-0.239-0.883
	c0.739-1.251,1.605-2.432,1.739-3.905c0.017-0.184,0.068-0.248,0.157-0.403c-0.198-0.233-1.932-0.632-1.955-0.611
	c-0.836,0.698-2.083,3.613-3.131,4.878c-1.111,1.343-3.061,2.39-4.491,3.332c-0.589,0.388-1.173,0.952-1.726,1.4
	c-0.166,0.135-1.948,1.864-1.975,1.908c-0.512,0.846-1.038,2.523-1.93,3.061c-0.988,0.596-2.157,0.965-3.166,1.535
	c-0.854,0.482-1.714,1.33-2.595,1.721c-1.42,0.629-3.2,1.026-4.843,1.555c-1.353,0.674-3.578,2.042-4.865,2.426l-21.977,4.913
	c-2.155,0.483-4.87,1.213-7.161,1.347c-1.596,0.093-3.293-0.091-4.904-0.133l-0.184,0.016c-1.058,0.084-2.271,0.076-3.308,0.264
	c-2.816,0.509-5.312,1.821-7.988,2.717c-1.192,0.399-3.909,0.998-3.993,1.007c-2.153,0.246-4.346,0.615-6.502,0.74
	c-1.528,0.088-3.138-0.016-4.673-0.016c-4.354,0-8.708-0.034-13.062-0.044c-2.359-0.006-7.251-0.306-9.408,0.101
	c-1.362,0.256-2.14,1.189-3.356,1.672c-0.914,0.362-1.872,0.435-2.861,0.452l-0.768-0.464c-0.09-0.362-0.5-1.499-0.893-1.667
	c-1.084-0.467-2.999-1.52-4.088-1.759c-1.086-0.238-6.355-0.346-6.519-0.381c-2.15-0.465-4.334-1.029-6.499-1.404
	c-1.04-0.18-2.158-0.14-3.209-0.275c-3.374-0.435-6.549-1.17-9.734-2.309c-0.052-0.019-0.13-0.013-0.184-0.019
	c-2.772-0.299-6.756-0.7-9.203,0.883c-0.442,0.285-0.933,0.84-1.332,1.199c-0.617,0.557-2.291,0.216-2.969-0.019
	c-0.281-0.482-0.851-1.147-1.361-1.407l-4.82-0.117c-1.088,0.714-3.547,2.235-4.862,2.468c-1.293,0.228-2.629,0.053-3.864,0.645
	c-0.741,0.355-1.6,0.916-2.29,1.37c-0.54,0.355-1.041,0.945-1.607,1.241c-1.509,0.788-3.158,1.328-4.686,2.116
	c-0.18,0.093-3.003,0.757-3.888,1.192c-0.82,0.403-1.536,1.294-2.343,1.747c-1.272,0.716-2.91,1.422-4.269,1.97
	c-0.795,0.32-1.971,0.452-2.789,0.571c-3.21,0.465-6.979,0.6-9.982,1.862c-2.376,0.998-3.813,3.081-5.909,4.467
	c-1.1,0.728-2.354,1.226-3.573,1.721c-1.196,0.486-2.641,0.926-3.77,1.532c-1.927,1.035-3.7,2.434-5.609,3.508
	c-0.564,0.318-2.168,0.845-2.255,0.921c-1.006,0.888-1.978,1.895-3.136,2.573c-1.899,1.113-4.078,2.52-6.276,2.981
	c-0.831,0.174-1.665,0.372-2.5,0.524c-0.993,0.181-2.076,0.143-3.051,0.377c-1.804,0.433-3.606,1.012-5.395,1.513
	c-0.735,0.206-1.13,1.18-1.683,1.577c-0.765,0.55-1.622,1.354-2.461,1.77c-1.324,0.656-2.982,0.916-4.262,1.634
	c-2.021,1.134-4.111,2.528-6.211,3.475c-2.799,1.263-5.736,1.875-8.596,2.901c-1.772,0.637-3.693,2.289-5.744,2.954
	c-3.361,1.09-10.603,1.294-14.068,1.562c-2.596,0.201-4.975,2.312-7.579,2.505c-2.406,0.179-4.952,0.263-7.313,0.785
	c-2.018,0.445-4,1.124-6.013,1.6c-1.782,0.421-3.777,0.647-5.604,0.89c-1.186,0.158-2.5,0.41-3.688,0.457
	c-0.441,0.018-1.298-0.286-1.706-0.245c-0.862,0.088-1.648,0.663-2.618,0.706c-3.418,0.15-6.659,0.072-10.111,0.667
	c-1.526,0.264-3.166,0.842-4.672,1.241c-2.326,0.618-8.89,2.487-10.601,1.963c-2.609-0.801-5.283-1.777-7.93-2.419
	c-2.434-0.591-4.972-1.373-7.431-1.804c-2.474-0.433-5.142-0.561-7.707-0.841c-2.414,0.053-3.53,0.292-5.968,0.604
	c-1.125,0.144-2.376,0.067-3.506,0.101c-3.588,0.104-7.177,0.139-10.766,0.189l-0.213,0.004c-2.762-0.144-5.48-0.103-8.229-0.354
	c-1.739-0.159-3.63-0.741-5.424-1.109c-2.632-1.145-4.76-3.578-6.87-5.475c-1.325-1.19-2.777-2.297-4.059-3.531
	c-0.607-0.586-1.173-1.388-1.722-2.037c-0.065-0.078-2.108-1.585-2.806-2.343c-0.415-0.453-0.703-1.124-1.139-1.548
	c-0.354-0.345-2.276-2.007-2.696-2.52c-0.01-0.012-0.507-0.366-0.562-0.389c-1.642-0.688-3.28-1.422-4.938-2.068
	c-1.097-0.428-2.306-0.702-3.379-1.177c-1.749-0.772-3.406-1.799-5.147-2.592c-1.521-0.693-3.301-1.339-4.908-1.846
	c-1.048-0.33-2.032-0.18-3.104-0.241c-0.965-0.055-6.078-0.856-7.703-1.116c-0.799-0.128-1.652-0.071-2.447-0.212
	c-1.038-0.184-2.113-0.522-3.14-0.777c-2.626-0.649-3.448,0.813-4.551,0.925c-1,0.101-2.519-0.206-3.546-0.291
	c-1.286-0.105-2.31,1.4-3.269,1.822c-1.689,0.743-5.757,1.96-5.892,2.022c-1.671,0.775-4.718,1.943-6.188,2.872
	c-0.924,0.583-2.079,1.863-2.221,3.014l-1.283,1.057l-5.065,0.649c-0.104,0.013-1.298,0.392-1.308,0.395
	c-3.584,1.074-6.034,3.626-9.315,4.781c-1.751,0.617-3.622,1.033-5.4,1.578c-1.902,0.582-3.784,1.354-5.659,2.021
	c-0.08,0.029-1.993,1.22-2.74,1.441c-1.844,0.546-4.896,0.066-6.784-0.124c-1.62-0.164-3.807,1.465-4.64,1.531
	c-1.595,0.127-3.17,0.215-4.646,0.925c-0.8,0.385-1.526,1.031-2.312,1.452c-2.202,1.179-4.544,1.959-6.778,3.019
	c-1.713,0.812-3.595,1.981-5.178,3.011c-1.539,1.001-2.499,2.455-3.815,3.675c-0.056,0.053-1.806,0.998-2.014,1.113
	c-0.047,0.025-0.12,0.034-0.171,0.049c-2.86,0.821-3.731-0.102-6.65-0.687c-2.113-0.424-4.292-0.703-6.444-1.057
	c-1.679-0.081-3.49,0.022-5.127-0.366c-3.95-0.938-6.422-1.222-10.441-1.042l-1.8,0.08c-1.425,0.312-4.383,1.921-6.043,1.192
	c-0.888-0.39-1.84-0.901-2.753-1.207c-0.401-0.135-3.067,0.219-3.451,0.551c-0.947,1.241-1.688,2.929-2.166,4.403l-0.866,0.471
	c-1.134,0.326-3.37-2.271-4.055-2.799c-0.458-0.354-1.086-0.97-1.588-1.227c-0.541-0.276-2.162-0.403-2.411-1.011
	c-0.555-1.81,3.875-6.697,3.553-8.173c-0.07-0.297-0.462-0.723-0.744-0.826c-1.339-0.491-3.931-1.201-5.004-2.215
	c-0.961-0.907-1.137-1.85-2.438-2.562c-1.702-0.933-3.513-1.749-5.253-2.614c-2.868,0.283-4.845,0.721-7.651-0.016
	c-2.862-0.751-6.128-1.378-8.903-2.335c-2.229-0.77-4.708-2.13-6.883-3.113c-2.207-0.998-4.448-1.337-6.809-1.874l-1.151-1.476
	l-1.553,1.554c0.277,0.521,1.226,2.012,1.2,2.554c-0.004,0.091,0.33,0.597,0.313,0.639c-0.647,1.592-2.378,3.029-3.557,4.24
	l-0.21,0.216c-1.098,1.129-3.395,3.325-2.343,5.115c1.266,2.151,0.947,1.355,1.401,3.739c0.206,1.081-0.869,1.771-1.315,2.626
	c-0.596,1.138-1.165,2.55-2.458,3.033c-0.997,1.688-1.818,2.827-2.165,4.822c-0.2,1.147,1.512,4.424,1.755,6.12
	c0.019,0.124,0.154,1.549,0.148,1.618c-0.028,0.307-0.555,2.106-0.952,3.169c-0.288,0.773-0.282,1.7-0.564,2.476
	c-0.215,0.591-0.623,1.48-0.951,2.015c-0.771,1.258-2.25,2.33-3.572,2.928l-0.017,0.562l0.246,1.52
	c0.126,0.205,1.493,2.387,1.513,2.453c0.022,0.077,0.083,2.816,0.091,3.078l0.588,0.374c0.493,0.558,0.203,1.717,0.397,2.373
	c0.024,0.084,0.792,1.477,0.957,1.785c0.065,0.425,0.097,0.919,0.204,1.331c0.549,2.119,3.272,0.959,4.232,1.453
	c0.241,0.27-0.165,1.922-0.272,2.218c0.287,0.509,1.097,2.2,0.886,2.812c-0.553,0.54-2.712,2.38-2.353,3.298l0.443,0.271
	c1.72-0.199,1.834-0.625,3.287-1.049c0.952-0.278,3.174,0.178,3.517,1.282c-0.019,1.157-0.152,2.138,0.224,3.233
	c0.68,0.095,3.141,0.647,3.454,1.382c-0.166,0.788-0.502,1.453-0.944,2.139c-0.118,0.999,1.002,2.254,1.617,2.891
	c-0.02,0.465-0.352,1.12-0.627,1.479c-1.679,0.819-1.829,0.838-3.054,2.037l-4.049,0.008l-1.559,1.565
	c-2.588,0.361-2.793-0.407-5.141-1.958c-0.324-0.214-2.755,0.432-3.127,0.547l-1.745-1.354c-1.802-0.009-2.597-0.327-3.918,1.099
	l-1.656-0.611l-0.36,0.226c-0.287,1.437-0.653,4.198-2.518,4.211c-1.216-1.069-2.758-0.949-4.219-1.286
	c-1.403-0.323-2.329-1.727-3.772-2.049l-0.689,0.422c-0.182,0.931,0.223,2.411,0.659,3.219c-0.039,0.248-0.261,1.219-0.528,1.324
	l-1.164,0.181c-0.647,0.574-1.24,1.766-1.431,2.593c0.671,1.056,1.513,2.396,1.808,3.633l-1.279,3.245
	c0.47,1.206,0.343,1.878,0.577,2.634c0.266,0.857,1.148,1.131,1.392,2.12l-1.073,2.113c2.004,4.922-0.85,3.847-0.938,5.727
	c-0.033,0.707,0.229,1.495,0.174,2.196c-0.143,1.851-3.014,2.898-4.501,2.377c-1.034-0.363-2.193-1.099-3.186-1.596
	c-1.55,0.778-2.538,1.42-2.664,3.256l1.352,2.637c-0.46,0.798-2.457,1.069-3.209,0.812c-1.639-0.562-2.115-1.487-4.071-1.192
	c-3.673,0.554-4.738,2.771-6.513,5.799c-0.457,0.78-0.689,1.739-0.99,2.593c0.043,0.053,0.197,0.218,0.216,0.271
	c0.222,0.613,0.646,1.462,0.755,2.09l-0.598,5.492c-0.047,0.442,0.018,0.711-0.121,1.134c-0.022,0.07-1.514,2.512-1.65,2.738
	c-0.606,0.004-1.163-0.375-1.683-0.645l-1.032-2.38c-0.835-1.925-1.087-2.152-2.809-3.312c-0.271-0.182-0.392-0.343-0.693-0.467
	c-0.639-0.261-1.684-0.264-2.379-0.426c-1.523-0.354-3.042-0.791-4.557-1.185c-1.257-0.327-4.164-0.127-4.626-0.498
	c-0.935-0.666,0.079-2.837,0.351-3.693c0.056-0.175,0.128-1.913,0.145-2.211c-0.339-0.748-0.994-1.652-1.676-2.129
	c-1.9-0.586-5.976,2.582-8.593,2.921l-1.664-1.607c-0.13,0.194-0.672,2.1-0.68,2.174c-0.458,0.337-0.943,0.497-1.386,0.797
	c-0.088,0.06-1.454,1.707-1.524,1.832c-0.207,0.367-0.124,0.695-0.174,1.076c-0.073,0.568-1.192,3.182-1.524,3.586
	c-0.603,0.734-2.172,1.349-2.391,2.191c-0.929,0.59-2.837,0.61-3.881,0.398c-0.365-0.074-0.642-0.304-0.97-0.398
	c-0.269-0.077-1.738-0.072-1.94,0.12c0.407,0.149,0.857,0.452,1.074,0.837c0.091,0.332,0.078,0.782,0,1.115
	c0.263,0.612,0.896,0.799,1.247,1.314c0.076,0.751,0.207,1.783,0.521,2.471c0.178,0.393,0.524,0.773,0.658,1.195
	c0.099,0.314,0.068,0.648,0.242,0.956c0.207,0.367,0.587,0.725,0.797,1.076c0.064,0.107,0.146,0.497,0.162,0.624
	c0.112,0.908,0.817,3.308,0.843,3.68l-0.069,0.598c-0.248,0.962-1.178,1.603-1.524,2.51c-0.343,0.895-0.471,2.08-1.247,2.75
	c-0.22,0.188-0.523,0.295-0.729,0.518c-0.403,0.438-1.915,3.031-2.147,3.188c-1.645,0.556-2.107-0.042-3.026,1.807
	c-0.186,0.373-0.418,0.672-0.474,1.102l0.208,0.438c0.386,0.142,0.42,0.393,0.658,0.638c0.107,0.11,0.281,0.163,0.382,0.279
	c0.574,0.66,0.841,2.103,0.52,2.908c-0.208,0.522-0.953,1.195-1.04,1.594c-0.08,0.372,0.013,0.721-0.139,1.116
	c-0.246,0.177-0.708,0.279-1.004,0.278c-0.782,2.177-2.992,1.999-4.678,3.388l0.034,0.318c0.724,0.107,1.294-0.251,1.837-0.678
	l0.484,0.159l0.174,0.319c-0.191,0.789-1.056,1.265-1.04,2.151c0.419,0.931,3.903,1.766,4.4,2.909
	c0.907,2.086-1.524,3.293-0.658,4.954c0.118,0.227,0.271,0.437,0.52,0.544l0.521,0.04c0.422-0.244,0.676-0.573,1.039-0.837
	c0.656-0.477,1.81,0.334,2.599,0.279c0.541-0.038,0.877-0.337,1.49-0.199l0.276,0.358c-0.049,0.298,0.02,0.773,0.174,1.036
	c0.263,0.162,0.475,0.394,0.728,0.558c0.842,0.548,1.988,0.725,2.841,1.235c0.848,0.507,1.085,1.45,1.594,2.191
	c0.357,0.52,1.274,1.676,1.698,2.191c0.743,0.905,1.839,1.371,2.76,2.046c0.626,0.458,1.789,1.122,1.571,2.019
	c-0.349,0.45-0.866,1.261-0.866,1.833c0,1.827,0.791,3.753,0.97,5.538c0.133,1.323-0.284,2.689-0.104,3.984
	c0.114,0.823,0.589,1.509,0.589,2.391c0,1.447-1.27,3.695-0.832,4.981c0.63,1.85,2.209,3.148,2.807,4.661
	c0.341,0.862,0.698,1.725,1.074,2.59c0.236,0.544,0.264,1.134,0.439,1.688c0.148,0.472,0.611,1.562,0.565,2.019
	c-0.153,1.525-2.541,2.013-3.534,2.869c-0.892,0.769-0.488,2.179-0.658,3.228c-0.405,0.497-1.22,1.268-1.455,1.833
	c-0.532,1.279,0.199,2.451-1.905,2.629c-0.048,1.983-1.099,1.431-1.179,2.63c-0.078,1.175,1.672,1.508,1.005,2.988
	c-2.052,1.596-1.281,2.339-0.381,4.064c0.084,0.161,0.133,0.42,0.185,0.598c0.22,0.76,0.214,1.566,0.438,2.312
	c0.135,0.445,0.387,0.901,0.485,1.354c0.057,0.258,0.042,0.614,0,0.877c-0.208,1.32-1.785,1.695-2.355,2.789
	c-0.41,0.786-0.09,1.54-0.485,2.23l0.034,0.239c0.793,0.58-0.117,1.029-0.069,1.754c0.026,0.395,0.212,0.608,0.312,0.956
	c0.086,0.299,0.062,3.001-0.035,3.268c-0.146,0.403-0.613,0.52-0.97,0.637l0.173,0.199c0.296,0,0.623-0.043,0.901,0.08l-0.035,0.199
	c-0.468,0.29-0.538,0.239-1.178,0.398c0.318,0.122,0.78,0.308,0.936,0.638v0.199c-0.818,0.951,0.661,3.091,0.797,4.104
	c0.077,0.582-0.077,1.1,0.173,1.674c0.473,1.088,1.207,1.985,1.629,3.147c0.191,0.53,0.203,1.053,0.312,1.594
	c0.082,0.41,0.445,0.65,0.555,0.996c0.082,0.261-0.002,0.57,0.069,0.837c0.048,0.179,0.155,0.256,0.242,0.398
	c0.236,0.389,0.232,0.77,0.416,1.155c0.67,1.412,1.908,2.571,2.113,4.225c0.254,2.038-0.657,3.299,0.242,5.578
	c0.323,0.817,0.854,1.553,1.144,2.351c0.396,1.09,0.534,2.318,0.936,3.427c0.195,0.538,0.7,1.076,0.971,1.594
	c0.35,0.67,0.388,1.509,0.692,2.151c0.054,0.112,0.211,0.209,0.277,0.319c0.437,0.718,0.656,1.501,0.797,2.311
	c0.04,0.231,0.215,0.387,0.243,0.638c0.29,0.091,0.731-1.037,0.802-1.123c0.325-0.181,1.249,0.094,1.273,0.231
	c0.034,0.194,1.107,0.568,1.787,0.504c0.158,0.173,0.023,0.469,0.131,0.52c0.28,0.134,3.369,1.791,3.468,1.81
	c0.086-0.344,1.618,0.111,1.713,0.028c0.064-0.057,0.002-0.315,0.188-0.541c0.035-0.042,0.979-0.502,1.058-0.494
	c0.049,0.005,0.91,0.294,1.041,0.416c0.347,0.32,0.695-0.059,0.754-0.172c0.386-0.215,1.289,0.461,1.55,0.521
	c0.037,0.078,0.665-0.777,0.877-0.841c0.082,0.021,1.26,0.315,1.729,0.37c0.313-0.191,0.644-0.82,1.099-1.097
	c0.143,0.049,0.304,0.031,0.5-0.028c0.163,0.163,1.908,1.017,2,0.926c0.425-0.004,2.127,0.219,2.344,0.271
	c-0.082,0.446,1.017,0.721,1.328,0.627c0.102-0.061,1.571-1.062,1.705-1.204c0.071,0.049,1.131,0.047,1.46,0.178
	c0.504,0.195,1.615,0.306,2.754,1.446c0.379,0.052,0.374-0.26,0.533-0.527c0.211-0.026,1.625-0.953,1.794-0.776
	c0.139,0.145,2.123,0.978,2.206,1.11c0.395,0.034,2.664-0.445,3.002-0.419c0.375-0.299,1.593-1.866,1.687-2.003
	c-0.011-0.034,0.499-1.331,0.499-1.331c0.069-0.396-0.588-1.11-0.602-1.75c-0.004-0.146,0.31-0.645,0.384-0.806
	c0.616-1.339,0.839-1.646,2.334-1.49c0.853,0.09,1.409,0.208,2.194,0.666c0.196,0.338,0.854,1.272,0.74,1.569
	c0,0-0.084,0.675-0.13,0.815c0.909,1.768,3.254,3.81,5.051,4.531c0.454-0.039,0.801-0.385,1.3-0.262
	c0.938,0.233,2.185,1.838,2.466,1.853c0.152-0.074,0.604,0.093,0.734-0.028c1.478-1.376,1.956-1.875,3.906-2.497
	c0.406,0.229-0.236,1.658-0.353,1.884c-0.391,0.762,0.575,2.426-0.654,4.203c-0.323,0.116-2.521-0.132-2.581-0.202
	c-0.7-0.951,0.394-0.884-1.488-1.878c-0.485-0.257-1.917-0.175-1.901,0.42c0.798,0.57-0.538,0.784-0.12,2.674
	c0.265,1.192,1.832,1.831,1.601,3.071c-0.033,0.182-5.133,3.246-6.152,3.697c-0.725,0.32-3.817,1.137-4.1,1.628
	c-0.126,0.22-0.062,0.757-0.014,0.991c0.195,0.952,0.209,1.032,0.994,1.906c1.383,0.377,1.518,0.183,2.45-0.617
	c0.266-0.036,1.086,0.823,1.086,0.823c0.846-0.3,1.663,0.063,2.51-0.111c1.44-0.297,2.211-1.729,3.916-1.622
	c0.612,0.038,1.178,0.49,1.795,0.558c0.288,0.031,1.103-0.185,1.297,0.101c0.09,0.291-0.563,1.812-0.267,2.75
	c0.435,1.373,1.52-0.205,1.559,1.695c0.03,1.451,0.986,1.709,2.201,1.972c0.293,0.063,2.568,1.317,2.596,1.338
	c0.159-0.08,0.7-0.172,0.86-0.118c0.104,0.085,0.779,0.812,0.784,0.844c0.013,0.475-0.271,0.41,0.136,0.889
	c0.948,0.257,2.207,1.254,2.258,1.333c0.436,0.68,2.137-0.563,2.564,2.132c0.439,2.776-3.028,5.202-3.067,5.404
	c0.001,0.216,0.373,0.599,0.512,0.748c1.117,1.214,1.069,1.208,1.533,2.644c0.337,1.044,0.781,1.143,1.525,1.939
	c0.329,0.354,0.066,1.055-0.026,1.459c-0.035,0.151,0.068,0.385,0.142,0.506c0.581,0.949,3.058,0.735,3.471,0.789
	c0.778,0.104,1.406,1.039,1.374,1.785c-0.016,0.38-0.706,1.279-1.033,1.466c-0.287,0.162-2.095,1.279-2.198,1.629
	c0.067,0.985,0.944,2.391,1.235,3.42c0.231,0.82,0.065,1.681,0.051,2.511c-0.023,1.369,1.471,1.152,2.36,1.754
	c0.573,0.388,1.684,1.549,2.164,2.132c0.095,0.115,0.183,0.279,0.128,0.43c-0.657,0.637-1.479,0.646-2.224,1.044
	c-0.23,0.123-1.285,0.916-1.457,1.333c-0.569,1.377-0.747,2.651-2.104,3.45c-1.287,0.758-1.188,0.679-0.562,1.821
	c0.266,0.486-0.521,1.436-0.929,1.636c-0.617,0.305-1.487,0.158-2.07,0.57c-0.47,0.332-1.515,2.632-1.67,2.747
	c-0.608,0.448-1.506,0.774-1.968,1.367c-0.888,1.139,0.216,2.118,0.119,2.705c-0.106,0.643-1.721,4.009-1.935,4.22l-1.303-0.2
	l-0.945,1.377c-0.099-0.204-2.547-0.792-3.06-0.651c-1.145-0.881-2.305-0.835-3.441-1.51c-0.258,0.627-0.671,1.275-1.099,1.799
	l-0.698-0.496l-0.529,2.384c-0.582-0.077-1.17-0.127-1.755-0.185c-0.704,1.532-0.565,0.998-0.766,2.606
	c-0.587,0.292-0.967,0.516-1.67,0.77c-0.64,2.35-1.092,0.709-2.062,1.355c-0.042,0.027-0.712,1.356-0.929,1.613
	c-0.644,0.762-1.709,1.128-2.232,2.014c-0.293,0.495-0.481,1.066-0.664,1.606c-0.326,0.961-1.117,0.415-1.542,1.185
	c-0.792,1.434-2.673,4.144-2.905,5.85c-0.026,0.195,2.279,0.841,3.279,1.34c1.479,0.738-0.045,2.897,3.221,2.769
	c0.699-0.027,2.695-0.305,3.322,0.186c0.19,0.43,0.231,1.157,0.537,1.488c0.188,0.204,0.846,0.542,1.076,0.64
	c1.803,0.763,1.167,1.768,1.164,3.307c-0.142,0.184-1.459,2.205-3.373,1.644c-0.84-0.246-2.005-0.64-2.872-0.726
	c-0.481-0.048-0.986,0.033-1.465-0.037c-0.376-0.056-1.348-1.074-2.002-1.317c-0.64-0.238-1.254,0.31-1.865,0.074
	c-0.698-0.271-1.076-1.286-1.729-1.57c-1.012-0.44-1.349,0.24-3.212-0.978c-0.19,0.025-0.529-0.086-0.656,0.074
	c-0.313,0.744-0.727,1.379-0.843,2.348c-0.034,0.019-2.038-0.016-2.088,0.104c-0.051,0.12-0.396,1.28-0.682,1.007
	c-0.169-0.162-4.381-0.618-4.54-0.689c-0.132-0.058-0.461-0.259-0.554-0.354c-0.734-0.758-0.386-2.285-1.329-2.51
	c-1.226-0.293-1.532,1.973-2.411,2.405c-0.125,0.062-2.98,0.348-3.084,0.43c-0.438,0.348-0.203,1.118-0.486,1.385
	c-0.16,0.151-1.898,0.83-2.273,0.94c-0.873,0.256-0.662-1.227-1.841-0.918c-0.227,0.06-1.432,1.666-1.432,1.666
	c-0.862,1.353-0.977,2.435-1.729,3.716c-0.475,0.809-1.934,2.4-2.044,2.451c-0.272,0.016-1.014-0.664-1.636-0.695
	c-0.15,0.039-0.332,0.596-0.403,0.742c-0.61,1.269-0.66,0.996-1.429,2.041c0,0-0.757,3.219-0.941,3.59
	c-0.25,0.502-2.455,1.188-2.544,2.137c0.106,0.501,0.731,0.904,0.669,1.402c-0.081,0.654-0.777,2.271-1.245,2.853
	c-0.328,0.407-1.404,0.673-1.906,0.976c-0.62,0.373-0.589,1.171-1.007,1.717c-0.28,0.365-1.029,0.699-1.176,0.996
	c-0.455,0.921,1.405,1.848,2.096,1.916c1.703,0.168,0.83,0.985,3.008-0.434c0.161,0.02,0.438,0.365,0.461,0.453
	c0.118,0.179,0.89,0.709,1.092,0.809c0.399,0.812,1.108,1.432,1.867,1.931c0.481,0.073,1.036-0.215,1.537-0.187
	c0.361,0.02,2.524,1.733,2.943,2.057c0.967,0.561,3.17,2.59,2.323,3.836c-0.098,0.144-2.468,2.148-3.046,3.171
	c-0.233,0.413-0.53,0.979-0.938,1.216c-0.331,0.05-0.722-0.351-1.283-0.287c-0.635,0.07-1.35,0.676-1.96,0.941
	c-1.938,0.843-1.352-0.338-2.598-0.174c-1.038,0.137-0.982,0.87-1.107,0.93c-0.695,0.129-1.36,0.276-2.036,0.507
	c-0.501,0.171-2.007,1.534-1.545,2.117c0.164,0.207,1.146,0.565,1.366,0.858c0.087,0.346-0.015,4.104-0.094,4.249
	c-0.688,1.258-2.938,2.493-4.059,3.423c-0.528,0.439-0.903,1.081-1.444,1.515c-0.998,0.799-2.395,1.618-3.583,2.107
	c-1.662,0.686-5.373,2.585-6.104,4.226c-0.275,0.618-0.137,3.771-0.63,4.358c-0.366,0.437-1.838,1.296-2.069,1.485
	c-0.97,0.795-2.057,1.188-3.136,1.764c-0.713,0.311-1.431,0.419-2.126,0.691c-0.229,0.09-0.857,0.492-0.998,0.52
	c-0.787,0.15-1.835-1.146-3.222-0.215c-0.84,0.564-0.546,2.461-1.043,3.023c-0.246,0.279-1.407,0.797-1.737,0.941
	c-0.788,0.348-2.11,1.532-2.224,1.55c-0.795,0.44-1.209,1.044-1.909,1.569c-0.606-0.138-1.295-0.536-1.886-0.762
	c-0.763,0.454-1.821,0.592-2.551,1.09c-0.25,0.172,0.301,2.32,0.315,2.602c0.008,0.156-0.046,1.338,0.039,1.439
	c0.185,0.014,0.306-0.093,0.47-0.153c0.114-0.042,1.456-0.213,1.809-0.403c0.247-0.133,0.598-0.484,0.855-0.543
	c0.362-0.082,0.804,0.308,1.159,0.37c0.322,0.057,0.672,0.068,0.997,0.063c0,0-0.821,7.807-0.806,7.887
	c0.309,1.611,0.637,3.23,0.892,4.851c-0.67,1.376-1.354,2.7-2.025,4.03c-0.202,0.399-0.135,4.736-0.503,5.321
	c-0.068-0.017-0.397-0.157-0.466-0.209c-0.14,0.106-0.22,0.328-0.404,0.374c0,0.362-0.088,1.41-0.065,1.671
	c0.02,0.228,0.182,1.038,0.179,1.235c-0.005,0.315,0.035,1.385-0.159,1.609c-0.152,0.054-0.748,1.016-1.39,1.419
	c-0.035-0.04-0.782-1.328-0.815-1.43c-1.387,1.491-2.734,3.028-4.099,4.542c1.487,1.821,3.026,3.586,4.624,5.285
	c0.112,0.119-0.177,1.395-0.272,1.495c-0.062,0.472,0.038,1.128,0.1,1.604c0.008,0.06,0.09,0.718,0.108,0.997
	c0.008,0.109-0.257,1.926-0.278,2.115l-0.224,1.879l-1.919,1.494l0.531,1.229c0.22,0.508,1.07,0.639,1.483,1.051
	c0.316,0.314,0.351,0.69,0.588,1.014c0.154,0.208,0.446,0.334,0.628,0.532c0.158,0.173,1.141,2.189,1.141,2.189
	c0.042,0.305,0.288,0.505,0.397,0.763c0.286,0.682,0.476,1.341,0.447,2.09c-0.01,0.253-0.933,0.999-0.958,1.029
	c0.033,0.227,0.042,0.616,0.109,0.762c0.374,0.816,0.527,1.559,0.227,2.461c0.433,0.094-1.096,1.34-0.346,3.715
	c-0.118,1.038,0.531,0.668,0.312,1.688c-0.438,0.812-0.369,3.109-1.261,3.516c-0.479,1.159-0.913,1.471-1.554,2.366
	c-0.219,0.305-0.379,0.644-0.562,0.962c-0.316,0.551-1.678,1.646-2.281,1.814l0.003,0.293c1.316,0.895,2.148,1.562,3.342,2.518
	c0.103,0.082,1.096-0.391,1.25-0.375c0.149,0.194,0.337,0.652,0.459,0.756c0.137,0.136,0.492,0.614,0.643,0.689
	c0.492,0.244,3.355-0.812,3.596-0.947c0.086-0.336-0.539-0.828-0.392-1.264c0.366-0.212,1.677-1.944,1.904-1.957
	c0.31,0.283,3.077-0.869,3.37-0.877c0.513-0.14,0.036-1.385,0.498-1.057c0.043,0.07,1.368,0.122,1.461,0.027
	c0.093-0.229,0.481-1.365,0.481-1.365c0.167-0.093,1.224,0.174,1.347,0.02c0.063-0.078,0.05-0.268,0.149-0.261
	c0.357-0.198,0.469-1.035,0.699-1.267c0,0,2.979-0.201,3.64-0.488c0.182-0.08,0.876-0.847,1.152-1.057
	c0.201,0.094,0.397,3.074,1.009,2.592c0.097-0.192,2.096,0.118,2.701,0.501c0.275,0.175,0.8,0.859,1.14,0.806
	c0.898-0.141,0.419-0.638,1.04-0.664c0.293,0.127,1.285,0.746,1.285,0.746c-0.087-0.166,0.926-0.781,1.09-0.828
	c1.378-0.391,1.186,0.572,1.792,1.247c0.081-0.003,0.185,0.558,0.138,0.729c0.118,0.218,2.035-0.068,2.111-0.157
	c0.063-0.243,0.202-0.683,0.526-0.665c0.084,0.115,2.826,0.487,3.164,0.414c0.617-0.174,0.88,1.4,0.958,1.606
	c0,0.081,0.057,1.456,0.132,1.542c0,0,2.698,0.27,2.87,0.348c0.126,0.498,1.072,1.668,1.033,1.928
	c-0.116,0.135-2.35,0.681-2.35,0.681c1.706,1.388,0.448,1.25,2.755,1.824c1.125,0.28,2.837,0.118,2.837,0.118
	c0.551-0.102,1.619,0.484,2.383,0.441c0.395-0.094,0.64,0.557,0.73,0.635c0.068,0.357,0.407,2.133,0.133,2.291
	c-0.153,1.152-0.326,2.25-0.413,3.376c0.209,0.141,0.012,0.948,0.034,1.26c0.01,0.146,0.391,0.532,0.365,0.687
	c0.716,0.514,3.111,2.477,3.675,2.607c0,0,0.841,1.021,0.979,1.341c0.361,0.835,0.354,2.987,1.239,3.3
	c0.156,0.343,0,1.262-0.33,1.447c0.033,0.535,0.272,2.846,0.337,2.928c0.438-0.186,4.949-1.679,5.31-1.668
	c0.313,0.008,3.494,0.332,3.854,0.209c0.211,0.484,0.362,0.926,0.882,1.207c0.767-0.463,2.972-1.354,3.508-1.154
	c0.244,0.316,0.679,0.575,0.87,0.854c0.063,0.09,0.931,2.699,0.959,2.826l0.548,0.238c1.099-0.405,2.88-0.834,2.88-0.834
	c0.395,0.021,1.771,1.227,2.159,1.474c0.899,0.575,5.088,3.413,5.953,4.246c2.01,1.935,10.616,10.137,11.625,10.89
	c1.303,0.137,9.113,1.029,9.329,1.166c0.604,0.385,1.204,0.817,1.847,1.135c0.305,0.129,22.204,2.976,22.255,3.004
	c1.413,0.797,1.567,1.197,2.49,2.299c0.528-0.451,1.043-1.045,1.495-1.568c0.848-0.033,10.32,2.006,13.623,2.287
	c1.441-1.481,2.864-3.149,4.44-4.482c0.988-0.835,70.69-44.336,73.475-46.151c2.508-1.634,49.701-29.971,59.437-35.863
	c19.772-11.968,91.682-55.938,93.271-56.808c5.225-3.311,140.153-83.635,142.961-85.068c0.548-0.279,1.202-0.351,1.763-0.594
	c1.647-0.717,40.399-23.983,57.639-33.893c4.713-2.709,18.457-10.855,19.427-11.183c0.639-0.214,11.168-1.479,12.897-1.761
	c2.137-0.348,16.411-3.794,21.428-4.866c1.881-3.656,1.069-3.552,5.142-5.103c0.028-0.888,0.046-1.775,0.055-2.663l1.07-0.572
	c1.022-1.894,13.236-29.167,13.462-29.46c3.033-3.952,11.256-15.054,12.493-16.416c-0.675-10.038-2.481-42.57-2.833-48.788
	c-0.006-0.098-0.014-0.183,0-0.278c0.392-2.818,1.054-5.717,1.268-8.545c0.138-1.825-0.069-3.85-0.104-5.691
	c-0.021-1.129,5.258-16.75,5.258-16.75c0.045-4.536,0.063-13.981,0.063-13.981c0.229-0.225,11.306-18.444,12.712-20.415
	c0.069-5.297-0.368-29.275-0.383-29.316c-0.882-2.516-12.081-27-13.345-29.519c0.902-8.688,3.333-31.168,3.395-33.364
	c0.059-2.099-0.073-4.262-0.073-6.37c2.151-3.439,7.668-12.871,8.429-14.063c0.155-0.243,4.577-8.278,5.189-9.282
	c9.183-1.673,46.178-8.34,49.136-8.869c0.429-0.076,0.535-0.148,0.873-0.437c2.218-1.891,10.148-9.17,11.8-10.886
	c0,0,48.9-49.145,53.215-53.945C884.39,70.346,881.101,70.709,880.583,69.983z"/>
</svg>
