<?xml version="1.0" encoding="utf-8"?>
<!-- Generator: Adobe Illustrator 17.0.0, SVG Export Plug-In . SVG Version: 6.00 Build 0)  -->
<!DOCTYPE svg PUBLIC "-//W3C//DTD SVG 1.1//EN" "http://www.w3.org/Graphics/SVG/1.1/DTD/svg11.dtd">
<svg version="1.1" id="Layer_1" xmlns="http://www.w3.org/2000/svg" xmlns:xlink="http://www.w3.org/1999/xlink" x="0px" y="0px"
	 width="558.957px" height="512.846px" viewBox="-449.973 -487.255 558.957 512.846"
	 enable-background="new -449.973 -487.255 558.957 512.846" xml:space="preserve">
<g>
	<polygon fill="none" points="-359.214,24.901 -355.846,25.591 -355.275,24.901 	"/>
	<path fill="none" d="M-353.358,22.581l41.98-26.955l40-25.633l79.866-50.546L-84.8-146.047H-393.1
		c-0.206,0.962,1.118,1.98-1.247,2.187c-0.955,0.961-0.124,1.349-1.814,1.349c-0.293,0-1.86,1.692-2.099,2.024
		c-0.402,0.559-0.405,1.389-0.725,1.972c-0.464,0.847-1.551-0.001-1.632,0.882c-0.164,1.776-2.06,1.721-2.124,2.413
		c-0.053,0.573,0.294,0.934,0.855,0.934c0.912,0,2.493,1.221,2.772,2.076c0.58-0.292,0.577,1.09,1.399,1.09
		c0.609,0,1.87,0.239,2.358,0.052c0.321-0.123,2.15,2.483,2.15,3.192c0,1.689,0.577,1.517-0.881,2.076
		c-0.709,0.272-3.931-0.309-4.612-0.571c-0.877-0.336-1.013-1.296-2.176-1.194c-0.663,0.247-3.672-2.421-4.482-0.96
		c-1.297,2.338-0.517,3.708-3.238,1.816c-0.285-0.199-0.449-0.995-0.829-1.038c-1.538-0.175-2.931,1.064-4.249,1.064
		c-1.922,0-3.684,0.829-5.7,1.505c-1.576,0.528-4.183,4.437-4.664,5.89c-1.535-1.147-1.839,0.647-2.358,1.92
		c-0.754,1.853-1.382,0.318-2.073,2.699c0.082,0.655,0.516,2.137,0.337,2.673c-0.431,1.29-1.469,0.708-2.073,1.246
		c-0.685,0.609-0.22,1.115-0.57,1.687c-1.144,1.87-0.407,3.369,1.503,3.84c0.256-0.775,2.835,0.501,3.135,0.467
		c1.352-0.154,1.203,0.785,2.435,1.401c2.951,1.475,1.028,4.498-0.181,6.617c-0.383,0.126-0.551,1.918-1.477,0.415
		c-0.486-0.789-0.836-1.287-1.503-0.285c-0.593,0.89-0.737-0.233-1.011-0.389c-0.495-0.282-0.953,1.214-1.244,1.505
		c-0.865,0.865-2.163-0.416-2.254,0.571c-0.068,0.732,1.196,2.449,1.295,3.425c0.192,1.888-1.469,2.681-2.824,3.659
		c-0.341,0.246-0.861-0.021-1.062,0.337c-1.276,2.271-5.269,3.622-7.332,5.968l0.285,2.335l0,0l1.218,1.661
		c0.545,1.128,1.651,3.079,0.881,4.308c-0.347,0.553-1.922,1.519-0.881,1.946c1.939,0.796,2.148,1.757,2.539,3.633
		c0.367,1.758,1.922,3.362,2.125,5.008c-0.092,0.172-0.521,1.108-0.181,1.194c0.036,0.142,1.616,0.058,1.917,0.96
		c0.222,0.666-0.079,1.556,0.052,2.284c0.193,1.067-0.324,0.94-0.803,1.635c-0.596,0.865,0.733,2.594-1.062,2.491
		c-3.421-0.194-1.63,9.583-0.57,11.496c0.96,1.346,4.24,1.384,3.446,3.97c-0.632,2.057-3.768,3.568-4.534,6.072
		c-0.901,2.946-1.21,6.5-3.083,9.004l-4.042,3.4l-1.71,2.05l1.555,0.208c0.225-0.053,0.729-0.799,0.954-0.432
		c0.525,0.857,0.411,1.009,1.529,1.298c0.731,0.189,0.931,0.488,1.451,0.973c0.461,0.43,0.799-0.276,1.205,0.026
		c0.6,0.448,1.203-0.124,1.943-0.233c1.224-0.181,0.607,0.973,1.438,1.245c0.802,0.218,3.979-0.731,4.357,0.315
		c0.695,1.922,0.593,2.248,2.617,2.932v0.156c-2.375,0.786,0.253,2.174,1.554,2.257c4.547,0.292,2.603,1.77,3.524,5.372
		c0.065,0.256,1.683,2.681,2.021,2.906c1.226,0.818,1.553,2.297,1.995,3.633c-1.125,3.877,2.426,1.765,4.249,1.765
		c2.23,0,2.924,1.938,4.974,0.182c1.694-1.45,4.831,2.525,6.892,3.555c3.648,1.824,5.097,5.174,8.032,7.577l2.513,3.166l7.747,0.804
		l1.295,0.986l14.329,2.18l10.312,2.113h3.938L-353.358,22.581z"/>
	<path fill="none" d="M-36.2-175.875l27.841-8.363l0.933-1.764l2.306-2.88l3.083-7.006l6.01-14.61l8.654-12.508l-1.524-37.698
		l0.827-5.375v-6.098l4.341-12.506l0.103-10.853l6.615-10.439l2.644-4.065l-0.209-6.954H-442.39
		c-0.28,0.494-0.604,0.972-0.951,1.193c-3.4,2.166-0.78,1.758-0.959,4.904c-0.054,0.957-0.685,1.755-0.933,2.647
		c-0.223,0.805-1.218,1.245-1.373,1.713c-0.053,0-0.09,0.011-0.104,0.052h-0.052c-0.013,0.04,0.001,0.026-0.052,0.026
		c-0.014,0.041-0.05,0.052-0.104,0.052c-0.021,0.063-0.057-0.012-0.078,0.052c-1.16,0-1.337,0.425-2.228,0.727v0.13
		c0.689,0.228,1.338,0.223,1.969,0.726c0.477,0.38-1.278,1.137-0.129,2.154c0.375,0.332,1.814,1.464,1.814,1.894
		c0.042,0.014,0.026,0.028,0.026,0.078c0.607,0.201-1.155,1.785-0.855,2.18c-0.471,0.624,2.49,1.335,2.824,1.401
		c0.402-0.155,0.336-0.168,0.389-0.181c0.134-0.546,0.588-0.377,0.855-0.312c0.256,1.035,3.184,2.899,4.042,3.685l2.746,2.517
		c0.798,0.731,1.688,1.202,2.513,1.868c0.373,0.301-0.313,3.819,0.026,4.931c0.522,1.71,0.233,3.637,0.233,5.449
		c-0.923,3.181,1.642,9.22,2.591,12.274c0.88,2.833-1.96,1.623-2.098,3.451c-0.144,1.906-1.477,3.265-1.477,5.086
		c-0.391,0.935-1.264,0.977-1.529,1.972c-0.231,0.868,0.743,1.448,0.518,2.102c-0.805,2.337-0.756,2.127-0.155,4.541
		c0.282,1.134,0.36,2.766-0.104,3.815c-0.322,0.729-1.225,0.5-1.218,1.531l0.026,3.555c0.014,1.875,0.359,2.268-0.492,3.971
		c-0.356,3.704,2.396,7.196,3.446,10.613c0.507,1.649,1.425,3.166,1.425,4.93c0,0.907-0.156,1.749-0.156,2.647
		c0,0.841,1.017,1.896,0.933,2.569c1.033,2.139,1.833,4.124,2.475,6.237c0.718,0.242,2.382,0.173,3.095,0.432
		c0.549,0.199,0.825,0.828,1.296,1.168c1.299,0.939,2.736,0.272,4.042-0.13c0.766-0.236,1.408,0.337,2.176,0.337
		c0.272-0.824,1.06-0.059,1.606-0.519c1.715-0.857,0.571-0.024,1.865,0.441c0.647,0.233,1.355-0.115,2.28,0.208
		c1.751,0.61,2.481-1.709,3.912-0.156c0.346,0.376,2.374,0.618,2.695,0.259c0.899-1.005,2.325,0.253,3.834-0.363
		c2.409-0.984,1.186-4.719,2.487-5.294c0.342-0.151,2.565-1.511,2.565-0.13c0.615,0.208-0.019,2.313,0.337,2.828
		c0.375,0.542,1.277,1.668,1.839,2.05c0.664,0.331,1.687,1.216,2.384,0.519c0.758-0.758,0.392,0.05,1.088,0.675
		c1.151,1.033,2.764-0.545,3.705-0.856c0.187,0.553-0.317,4.195-0.751,4.411c-1.536,0.764-2.8-2.549-3.42-1.168
		c-0.19,0.423-1.024,3.24-0.855,3.374c0.505,0.401,0.9,0.393,0.622,1.168c-0.591,1.642-3.066,2.597-4.586,3.062
		c-1.485,0.454-1.27-0.102-1.27,1.427c0,1.419-0.359,1.245,1.114,1.245c0.498,0,1.011,0.182,1.503,0.182
		c0.567,0,1.065-0.348,1.554-0.285c0.561,0.072,0.365,1.352,1.451,0.26c0.767-0.772,0.925,0.406,1.762,0
		c1.147-0.145,1.447-1.123,1.84,0.415c0.453,1.773-0.31,1.014,1.192,1.764c0.135,0.068,0.546,1.355,0.596,1.557
		c0.275-0.068,0.687-0.019,1.083,0.112l11.094-34.143l-32.656-23.726h40.365l12.474-38.39l12.474,38.39h40.365l-32.656,23.726
		l12.474,38.39l-32.656-23.726l-28.947,21.031c0.216,0.095,0.387,0.186,0.449,0.308c0.223,0.445,0.402,1.185,0.829,1.479
		c0.935,0.645,0.591-0.014,1.27,1.194c0.541,0.962,1.317,1.366,1.036,2.958c-0.357,0.572-1.267,1.653-1.839,1.842
		c0,0.049,0.016,0.064-0.026,0.078c0,0.342,0.707,1.5,1.036,1.609c0,0.043,0.083,0.227,0.104,0.234c0,0.164,0.124,1.304,0.181,1.324
		c0,0.077,0.052,0.079,0.052,0.156c2.259,0.737,0.758,1.196,1.632,2.258c0.808,0.981,2.036,0.456,2.642,1.557
		c0.645,1.171,0.192,1.371-0.855,1.713c0,0.674,0.476,1.322,0.415,1.92c-0.044,0.434-0.775,1.498-0.44,1.946
		c-1.333,1.784,0.911,2.699,2.073,3.218c2.806,1.254,0.479,2.015-1.088,2.673c-1.416,0-0.823,2.41-1.218,2.543
		c0,0.26-0.846,0.346-1.01,0.675c-0.206,0.413,0.16,0.907,0,1.323c-0.367,0.958-1.804,0.984-2.565,1.453
		c-1.405,0.865-2.978,3.333-2.462,4.879c0.481,1.439-0.694,2.034-1.088,3.218c-0.917,0-1.401,0.311-2.125,0.856
		c-1.04-0.788-1.905-0.589-3.057-0.908c-1.806-0.501-0.981,1.024-1.762,0.753c-1.22-0.425-0.726,0.216-0.726,0.882
		c-0.928,0.314-1.26,0.694-1.343,1.083H-84.8L-36.2-175.875z M-59.034-248.69l12.474-38.39l12.474,38.39H6.279l-32.656,23.726
		l12.474,38.39L-46.56-210.3l-32.656,23.726l12.474-38.39l-32.656-23.726H-59.034z"/>
	<path fill="none" d="M24.959-332.411l-5.078-11.625l-4.871-10.691l2.643-24.548l-0.207-5.553l9.794-18.788l28.188-4.931L62.475-410
		l6.166-5.709l15.286-17.075l24.931-27.472c-0.005-0.208,0.017-0.403,0.072-0.58c0.41-1.312-1.672-0.798-1.658-2.569
		c0.003-0.396,0.041-0.795,0.079-1.188c0.072-0.751,0.145-1.486-0.027-2.16c-0.316-1.238-1.352-1.467-1.606-2.491
		c-0.575-2.31-2.205-4.622,0.7-6.228c1.943-1.074-1.408-2.971-1.866-3.607c-0.718-0.998-0.486-1.78-2.125-1.868
		c-1.5-0.08-0.614-2.295-2.28-1.764c-0.07,0.022-1.571,0.955-1.762,0.882c-0.891-0.342-0.259-1.339-1.632-1.012
		c-1.935,0.461-0.322-2.457-0.648-3.633c-0.102-0.368-0.272-0.62-0.457-0.781l-0.709,0.599c-0.735,0.106-2.889,3.9-3.627,4.697
		c-1.286,1.388-2.655,2.539-4.171,3.633c-1.167,0.842-0.954,2.109-1.71,2.958c-0.413,0.465-2.759,1.428-3.575,1.972
		c-0.885,0.591-1.546,0.538-2.332,0.96c-2.36,0-3.339,2.042-5.493,2.491l-8.343,1.739c-5.625,1.172-11.657,3.468-17.411,2.906
		c-1.228,0.248-1.213,1.118-2.694,0.701c-1.077-0.303-1.858,0.041-2.772,0.727c-1.984,1.49-3.543,0.992-5.337,2.102
		c-1.664,1.03-10.536,0.327-12.928,0.571c-1.076,0.11-6.815-0.195-7.773-0.597c-1.231,0-2.538,0.131-3.653,0.597
		c-0.327,0.137-2.425,1.604-2.565,1.038c-0.568-0.139,0.142-2.337-2.047-2.491c-1.562-0.11-2.511-1.386-4.327-0.934
		c-2.491,0.62-7.925-1.952-11.063-2.102c-2.434-0.116-4.596-1.322-6.503-1.479c-0.932-0.077-2.089,0.389-3.161,0.389
		c-2.591,0-2.23,2.569-3.342,2.569c-1.156,0-1.959-2.703-2.85-2.206c-1.037,0.578-1.385,0.274-2.332-0.312
		c-1.45-0.897-1.415,1.702-2.254,2.024c-1.633,0.627-4.118-0.018-5.752,1.038c-2.988,1.931-4.2,2.844-7.565,3.892
		c-2.817,0.878-5.423,5.468-9.146,4.1c-3.651,0.327-8.241,0.325-8.887,4.904c-0.118,0.84-7.277,4.768-8.757,5.683
		c-2.452,1.517-3.252,0.956-5.7,3.218c-1.876,1.734-5.538,3.154-8.187,2.725c-0.454,0.152-5.049,0.915-4.69,1.816
		c-1.893,1.082-0.352,2.647-4.042,2.647c-2.012,0-4.587,2.032-6.451,2.906c-3.478,1.631-8.19,3.744-11.866,4.308
		c-2.378,0.365-4.77,0.072-7.021,0.727c-3,1.336-4.025,2.413-7.462,2.413c-2.672,0-5.974,0.448-8.265,1.868
		c-3.98,2.467-12.416,1.679-17.255,2.387l-1.062,0.156l-0.311,0.026c-4.712,0.432-6.955,2.138-11.581-0.078
		c-3.375-1.617-8.746-3.114-12.566-3.114c-1.397,0-6.964,0.522-7.85,1.194c-0.12-0.073-0.556-0.011-0.674,0l-13.162-0.311
		l-2.358-1.635c-2.654-1.483-3.961-3.934-6.089-5.917c-1.216-1.134-4.145-2.606-4.145-4.36c0-2.177-1.437,0.564-2.021-0.753
		c-0.518-1.168-3.321-3.003-3.342-3.088c-0.395,0-2.801-1.236-3.498-1.505c-2.479-1.583-7.398-3.764-10.208-3.192
		c-1.066,0.217-9.698-1.911-9.819-2.284c-1.613,0-0.704-0.969-2.332,0.493c-0.877,0.787-1.906,1.004-3.005,1.116
		c-0.291,0.03-1.805-0.388-1.866-0.208c-0.137,0-0.855,1.427-2.487,1.427c-1.359,0.171-2.499,3.007-4.171,1.739l-0.596,0.208
		c-0.089,0.272-0.686,1.048-0.803,1.401c-0.322,0-1.856-0.654-1.943-0.389c-1.039,0-1.871,2.547-2.513,3.192
		c-0.597,0.599-3.075,1.056-3.964,1.142l-2.617,0.649l-3.161,3.088l-2.073,0.078l-3.757,1.972l-3.005,0.804l-0.984,1.479
		l-4.586-0.181l-2.047-0.934l-1.788,1.635l-0.777-0.052l-1.114-0.908l-3.005,2.906l-11.374,5.605l-0.104,2.232l-0.958,1.739
		l-2.695,0.078l-1.529-1.22h-1.451l-3.731-1.376l-7.203-1.349l-0.337,0.727l-4.949-1.324l-4.638,1.92l-1.425-2.232l-2.98,2.361
		l-2.021,2.18l-2.047-0.856c-0.904-0.904-0.03-1.669-1.684-2.18c-0.149-0.046-1.09-0.109-1.114-0.182
		c-0.049,0-0.064,0.016-0.078-0.026h-0.052c-0.017-0.051-0.078-0.041-0.078-0.13c-0.039-0.013-0.094-2.295-0.259-2.777
		c-0.224-0.651,1.346-1.215,1.788-1.557c2.225-1.725-0.558-3.166-2.539-3.166c-0.851,0-0.74-0.361-1.218-0.519
		c0-0.409-0.056-1.54,0.466-1.713v-0.182c-0.817-0.27-1.394-0.363-2.384-0.363c-0.02-0.061-0.902-0.707-1.011-0.752
		c-1.088-0.659-1.871-0.01-2.902-1.168c-0.816-0.916-1.507,0.038-2.435,0.389c-0.536,0.203-1.812,0.17-2.384,0.052
		c-2.527-0.52-6.231-1.313-8.187-3.036c-0.551-0.347-0.948-0.737-1.529-0.96c-0.491-0.189-1.158,0.097-1.632-0.026
		c-1.266-0.328-1.271-1.802-2.979-0.986c-0.684,0.327-1.655,0.233-2.332-0.026c-0.511-0.196-0.162,0.73-0.156,0.934
		c0,2.741-1.723,2.471-2.643,4.152c-0.562,1.028-1.422,2.58-1.736,3.711c-0.244,0.878,0.293,1.728,0.596,2.517
		c0.274,0.715-0.073,2.492-0.777,2.725c0,0.9-2.372,3.372-3.161,3.633c0,0.048-0.019,0.119-0.052,0.13
		c0,0.839,0.034,1.907-0.181,2.725c0,1.232-0.007,3.056,0.829,3.892c0.62,0.62,0.544,1.729,0.233,2.595
		c-0.63,1.752-1.069,3.919-2.021,5.475c-0.593,0.969-2.123,1.374-1.477,2.673c0.108,0.216,1.013,1.529,0.622,1.661
		c0.096,0.388,0.699,1.428,0.57,1.764c-0.38,0.99-0.319,1.24,0.285,2.18c0.123,0.999-0.177,1.149,0.622,1.765
		c0.461,0.356,0.873,0.54,0.984,1.22c0.261,1.588,0.709,1.507,1.969,1.998c0.499,0.195,0.161,0.126,0.415,0.467
		c-0.419,0.138,0.061,1.962,0.156,2.206c0.416,1.073-0.417,1.183-1.114,1.687c0.357,1.81,0.322,1.803,1.891,1.012
		c1.68-0.847,0.789-0.251,2.306,0.337c2.442,0.948-1.102,3.313,1.891,4.152c0.497,0.139,3.343,0.182,1.503,1.453
		c-1.812,1.251,0.632,2.523,0.44,4.204c-0.156,1.371-2.041,0.587-2.539,0.779c-0.342,0.131-0.562,0.873-1.218,0.545
		c-0.365-0.182-1.131-0.556-1.425-0.779c-0.501,1.538-0.229,2.34-1.943,1.479c-0.565-0.284-3.741-1.711-3.912-1.323
		c-0.679,1.537-1.226,0.648-1.71-0.234c-0.765-1.393-1.923-0.681-3.057-0.571c-0.916,0.684-0.149,2.599-1.788,1.375
		c-0.286,0.847-0.367,1.37-0.933,2.258c-0.944,1.482-0.863,0.883-1.71-0.078c-0.388-0.44-1.077-0.114-1.684-0.052
		c-1.008,0.103-1.517-0.409-2.28-0.908c-0.971-0.637-1.529-0.713-1.529,0.753c0,1.122,1.391,2.665-0.959,2.932
		c-1.023,0.116-0.04,1.363-0.363,1.868c-0.804,1.262,0.272,0.846,0.959,1.713c0.728,0.919,0.044,1.76-0.233,2.595
		c-0.874,0.879-0.09,2.372,0.104,3.373c0.814,1.638-0.987,1.842-0.207,3.607c0.513,1.16,0.69,2.564-0.674,3.088
		c-0.531,0.204,0.551,1.422,0.103,2.154c-0.484,0.791-2.038,1.45-2.953,1.194c-1.458-0.409-2.496-1.505-4.042-1.505
		c-1.363,0,0.375,4.08,0.492,4.541c0.335,1.311-0.874,1.84-2.021,1.427c-0.408-0.147-1.296-0.844-1.27-0.856
		c-0.649-0.482-2.33,0.048-3.057,0.26c-4.364,1.448-4.919,6.446-3.705,10.302c0.463,1.468-0.54,2.498-0.932,3.763
		c-0.687,2.212-2.41-0.152-2.41-1.427c0-1.912-2.884-3.973-4.638-3.892l-1.684,0.078h-0.052c-0.358-1.081-2.98-1.383-3.99-1.09
		c-1.984,0-0.19-2.667,0.078-3.633c0.355-1.279,0.286-2.465-1.373-2.465c-0.098,0-0.886,0.273-0.933,0.13
		c-0.468,0.355-1.057-0.71-1.554,0.571c-0.369,0.952-1.022,0.649-1.814,0.649c-0.72,0-0.772,0.115-1.218,0.623l-1.207-0.612
		c-0.16,0.261-0.466,0.405-1.047,0.405c-1.244,0-1.439,1.961-1.762,2.932c-0.308,0.875,0.216,2.79-0.907,3.166
		c-1.529,0.512-1.485,1.583-3.394,1.583c-1.117,0-1.111-0.81-2.617-0.312c0.297,0.451,1.238,0.313,1.14,1.272
		c-0.126,1.233,0.9,1.586,1.166,2.958c0.225,1.163,0.051,2.341,0.544,3.452c0.768,1.73,1.24,2.682,0.104,4.256
		c-0.544,0.753,0.053,1.302-0.207,2.024c-0.206,0.572-1.253,0.298-1.632,0.934c-0.134,0.031-0.448,0.8-0.862,1.532H25.424
		L24.959-332.411z"/>
	<path fill="none" d="M-321.612-186.574l-12.474-38.39l32.656-23.726h-40.365l-12.474-38.39l-12.474,38.39h-40.365l32.656,23.726
		l-11.094,34.143c0.438,0.144,0.855,0.389,1.042,0.693c0.294,0.477,0.873,0.677,1.287,0.86l28.947-21.031L-321.612-186.574z"/>
	<polygon fill="none" points="-79.217,-186.574 -46.56,-210.3 -13.904,-186.574 -26.378,-224.964 6.279,-248.69 -34.087,-248.69 
		-46.56,-287.08 -59.034,-248.69 -99.399,-248.69 -66.743,-224.964 	"/>
</g>
</svg>
